<?xml version="1.0" encoding="UTF-8" standalone="no"?>
<svg
   xmlns:dc="http://purl.org/dc/elements/1.1/"
   xmlns:cc="http://creativecommons.org/ns#"
   xmlns:rdf="http://www.w3.org/1999/02/22-rdf-syntax-ns#"
   xmlns:svg="http://www.w3.org/2000/svg"
   xmlns="http://www.w3.org/2000/svg"
   xmlns:sodipodi="http://sodipodi.sourceforge.net/DTD/sodipodi-0.dtd"
   xmlns:inkscape="http://www.inkscape.org/namespaces/inkscape"
   fill-opacity="1"
   color-rendering="auto"
   color-interpolation="auto"
   stroke="black"
   text-rendering="auto"
   stroke-linecap="square"
   width="750"
   stroke-miterlimit="10"
   stroke-opacity="1"
   shape-rendering="auto"
   fill="black"
   stroke-dasharray="none"
   font-weight="normal"
   stroke-width="1"
   viewBox="20 140 750 550"
   height="550"
   font-family="'Dialog'"
   font-style="normal"
   stroke-linejoin="miter"
   font-size="12"
   stroke-dashoffset="0"
   image-rendering="auto"
   id="svg2"
   version="1.1"
   inkscape:version="0.48.4 r9939"
   sodipodi:docname="request-describeeocoverageset.svg"
   inkscape:export-filename="/home/meissls/eox/projects/ESA_EVO-ODAS/deliverables/Standardisation/eo-wcs_1.1/spec/images/request-describeeocoverageset.png"
   inkscape:export-xdpi="300"
   inkscape:export-ydpi="300">
  <metadata
     id="metadata185">
    <rdf:RDF>
      <cc:Work
         rdf:about="">
        <dc:format>image/svg+xml</dc:format>
        <dc:type
           rdf:resource="http://purl.org/dc/dcmitype/StillImage" />
        <dc:title></dc:title>
      </cc:Work>
    </rdf:RDF>
  </metadata>
  <sodipodi:namedview
     pagecolor="#ffffff"
     bordercolor="#666666"
     borderopacity="1"
     objecttolerance="10"
     gridtolerance="10"
     guidetolerance="10"
     inkscape:pageopacity="0"
     inkscape:pageshadow="2"
     inkscape:window-width="640"
     inkscape:window-height="480"
     id="namedview183"
     showgrid="false"
     inkscape:zoom="0.408"
     inkscape:cx="375"
     inkscape:cy="275"
     inkscape:window-x="63"
     inkscape:window-y="34"
     inkscape:window-maximized="0"
     inkscape:current-layer="svg2" />
  <!--Generated by the Batik Graphics2D SVG Generator-->
  <defs
     id="genericDefs" />
  <g
     id="g5">
    <g
       fill="white"
       font-size="14"
       font-family="sans-serif"
       transform="translate(130,210)"
       stroke="white"
       id="g7">
      <rect
         x="0"
         width="279"
         height="109"
         y="0"
         opacity="0"
         stroke="none"
         id="rect9" />
      <rect
         fill="none"
         x="0"
         width="279"
         height="109"
         y="0"
         stroke="black"
         id="rect11" />
      <text
         fill="black"
         x="97"
         xml:space="preserve"
         y="17"
         stroke="none"
         id="text13">«Data Type»</text>
      <text
         fill="black"
         x="56"
         xml:space="preserve"
         y="34"
         stroke="none"
         id="text15">WCS Core::RequestBase</text>
      <line
         y2="37"
         fill="none"
         x1="0"
         x2="279"
         stroke="black"
         y1="37"
         id="line17" />
      <text
         fill="black"
         x="7"
         xml:space="preserve"
         y="54"
         stroke="none"
         id="text19">+ service: String = WCS {readOnly}</text>
      <text
         fill="black"
         x="7"
         xml:space="preserve"
         y="71"
         stroke="none"
         id="text21">+ version: String</text>
      <text
         fill="black"
         x="7"
         xml:space="preserve"
         y="88"
         stroke="none"
         id="text23">+ extension: Any [0..*]</text>
      <text
         fill="black"
         x="7"
         xml:space="preserve"
         y="105"
         stroke="none"
         id="text25">+ sections: String [0..1] = All</text>
      <line
         transform="translate(110,80)"
         fill="none"
         x1="30"
         x2="30"
         y1="30"
         y2="50"
         stroke="black"
         id="line27" />
      <line
         transform="translate(110,80)"
         fill="none"
         x1="30"
         x2="30"
         y1="50"
         y2="70"
         stroke="black"
         id="line29" />
      <line
         transform="translate(110,80)"
         fill="none"
         x1="30"
         x2="36"
         y1="30"
         y2="42"
         stroke="black"
         id="line31" />
      <line
         transform="translate(110,80)"
         fill="none"
         x1="30"
         x2="24"
         y1="30"
         y2="42"
         stroke="black"
         id="line33" />
      <polygon
         points=" 30 30 36 42 24 42"
         transform="translate(110,80)"
         stroke="none"
         id="polygon35" />
      <polygon
         fill="none"
         transform="translate(110,80)"
         points=" 30 30 36 42 24 42"
         stroke="black"
         id="polygon37" />
      <rect
         x="0"
         y="0"
         transform="translate(-70,150)"
         width="419"
         height="109"
         opacity="0"
         stroke="none"
         id="rect39" />
      <rect
         x="0"
         y="0"
         transform="translate(-70,150)"
         fill="none"
         width="419"
         height="109"
         stroke="black"
         id="rect41" />
      <text
         fill="black"
         x="126"
         xml:space="preserve"
         y="17"
         transform="translate(-70,150)"
         stroke="none"
         id="text43">DescribeEOCoverageSet</text>
      <line
         transform="translate(-70,150)"
         fill="none"
         x1="0"
         x2="419"
         y1="20"
         y2="20"
         stroke="black"
         id="line45" />
      <text
         fill="black"
         x="7"
         xml:space="preserve"
         y="37"
         transform="translate(-70,150)"
         stroke="none"
         id="text47">+ request: String = DescribeEOCoverageSet {readOnly}</text>
      <text
         fill="black"
         x="7"
         xml:space="preserve"
         y="54"
         transform="translate(-70,150)"
         stroke="none"
         id="text49">+ eoId: NCName [1..*]</text>
      <text
         fill="black"
         x="7"
         xml:space="preserve"
         y="71"
         transform="translate(-70,150)"
         stroke="none"
         id="text51">+ containment: TopologicalRelation [0..1]</text>
      <text
         fill="black"
         x="7"
         xml:space="preserve"
         y="88"
         transform="translate(-70,150)"
         stroke="none"
         id="text53">+ count: int [0..1]</text>
      <text
         fill="black"
         x="7"
         xml:space="preserve"
         y="105"
         transform="translate(-70,150)"
         stroke="none"
         id="text55">+ startIndex: int [0..1] = 0</text>
      <line
         transform="translate(50,230)"
         fill="none"
         x1="90"
         x2="90"
         y1="30"
         y2="70"
         stroke="black"
         id="line57" />
      <line
         transform="translate(50,230)"
         fill="none"
         x1="90"
         x2="90"
         y1="70"
         y2="110"
         stroke="black"
         id="line59" />
      <line
         transform="translate(50,230)"
         fill="none"
         x1="90"
         x2="96"
         y1="30"
         y2="42"
         stroke="black"
         id="line61" />
      <line
         transform="translate(50,230)"
         fill="none"
         x1="90"
         x2="84"
         y1="30"
         y2="42"
         stroke="black"
         id="line63" />
      <polygon
         points=" 90 30 96 42 90 54 84 42"
         transform="translate(50,230)"
         stroke="none"
         id="polygon65" />
      <polygon
         fill="none"
         transform="translate(50,230)"
         points=" 90 30 96 42 90 54 84 42"
         stroke="black"
         id="polygon67" />
      <text
         fill="black"
         x="39"
         xml:space="preserve"
         y="67"
         transform="translate(50,230)"
         stroke="none"
         id="text69">    dimensionTrim</text>
      <text
         fill="black"
         x="90"
         xml:space="preserve"
         y="84"
         transform="translate(50,230)"
         stroke="none"
         id="text71" />
      <text
         fill="black"
         x="79"
         xml:space="preserve"
         y="101"
         transform="translate(50,230)"
         stroke="none"
         id="text73">    0..*</text>
      <rect
         x="0"
         y="0"
         transform="translate(40,340)"
         width="199"
         height="99"
         opacity="0"
         stroke="none"
         id="rect75" />
      <rect
         x="0"
         y="0"
         transform="translate(40,340)"
         fill="none"
         width="199"
         height="99"
         stroke="black"
         id="rect77" />
      <text
         fill="black"
         x="40"
         xml:space="preserve"
         y="17"
         transform="translate(40,340)"
         stroke="none"
         id="text79">DimensionSubset</text>
      <text
         fill="black"
         x="57"
         xml:space="preserve"
         y="34"
         transform="translate(40,340)"
         stroke="none"
         id="text81">«Data Type»</text>
      <text
         fill="black"
         x="9"
         xml:space="preserve"
         y="51"
         transform="translate(40,340)"
         stroke="none"
         id="text83">WCS Core::DimensionTrim</text>
      <line
         transform="translate(40,340)"
         fill="none"
         x1="0"
         x2="199"
         y1="54"
         y2="54"
         stroke="black"
         id="line85" />
      <text
         fill="black"
         x="7"
         xml:space="preserve"
         y="71"
         transform="translate(40,340)"
         stroke="none"
         id="text87">+ trimLow: String [0..1]</text>
      <text
         fill="black"
         x="7"
         xml:space="preserve"
         y="88"
         transform="translate(40,340)"
         stroke="none"
         id="text89">+ trimHigh: String [0..1]</text>
      <polygon
         transform="translate(330,20)"
         points=" 0 0 256 0 256 0 269 14 269 14 269 59 269 59 0 59 0 59 0 0"
         opacity="0"
         stroke="none"
         id="polygon91" />
      <text
         fill="black"
         x="7"
         xml:space="preserve"
         y="17"
         transform="translate(330,20)"
         stroke="none"
         id="text93">cf. OWS Common [OGC 06-121r9]</text>
      <text
         fill="black"
         x="7"
         xml:space="preserve"
         y="34"
         transform="translate(330,20)"
         stroke="none"
         id="text95">Subclause 7.3.3 for background </text>
      <text
         fill="black"
         x="7"
         xml:space="preserve"
         y="51"
         transform="translate(330,20)"
         stroke="none"
         id="text97">on the sections parameter</text>
      <line
         transform="translate(330,20)"
         fill="none"
         x1="0"
         x2="256"
         y1="0"
         y2="0"
         stroke="black"
         id="line99" />
      <line
         transform="translate(330,20)"
         fill="none"
         x1="256"
         x2="269"
         y1="0"
         y2="14"
         stroke="black"
         id="line101" />
      <line
         transform="translate(330,20)"
         fill="none"
         x1="269"
         x2="269"
         y1="14"
         y2="59"
         stroke="black"
         id="line103" />
      <line
         transform="translate(330,20)"
         fill="none"
         x1="269"
         x2="0"
         y1="59"
         y2="59"
         stroke="black"
         id="line105" />
      <line
         transform="translate(330,20)"
         fill="none"
         x1="0"
         x2="0"
         y1="59"
         y2="0"
         stroke="black"
         id="line107" />
      <line
         transform="translate(330,20)"
         fill="none"
         x1="256"
         x2="256"
         y1="0"
         y2="14"
         stroke="black"
         id="line109" />
      <line
         transform="translate(330,20)"
         fill="none"
         x1="256"
         x2="269"
         y1="14"
         y2="14"
         stroke="black"
         id="line111" />
      <polygon
         transform="translate(390,180)"
         points=" 0 0 196 0 196 0 209 14 209 14 209 39 209 39 0 39 0 39 0 0"
         opacity="0"
         stroke="none"
         id="polygon113" />
      <text
         fill="black"
         x="7"
         xml:space="preserve"
         y="17"
         transform="translate(390,180)"
         stroke="none"
         id="text115">TopologicalRelation is one</text>
      <text
         fill="black"
         x="7"
         xml:space="preserve"
         y="34"
         transform="translate(390,180)"
         stroke="none"
         id="text117">of {overlaps, contains}</text>
      <line
         transform="translate(390,180)"
         fill="none"
         x1="0"
         x2="196"
         y1="0"
         y2="0"
         stroke="black"
         id="line119" />
      <line
         transform="translate(390,180)"
         fill="none"
         x1="196"
         x2="209"
         y1="0"
         y2="14"
         stroke="black"
         id="line121" />
      <line
         transform="translate(390,180)"
         fill="none"
         x1="209"
         x2="209"
         y1="14"
         y2="39"
         stroke="black"
         id="line123" />
      <line
         transform="translate(390,180)"
         fill="none"
         x1="209"
         x2="0"
         y1="39"
         y2="39"
         stroke="black"
         id="line125" />
      <line
         transform="translate(390,180)"
         fill="none"
         x1="0"
         x2="0"
         y1="39"
         y2="0"
         stroke="black"
         id="line127" />
      <line
         transform="translate(390,180)"
         fill="none"
         x1="196"
         x2="196"
         y1="0"
         y2="14"
         stroke="black"
         id="line129" />
      <line
         transform="translate(390,180)"
         fill="none"
         x1="196"
         x2="209"
         y1="14"
         y2="14"
         stroke="black"
         id="line131" />
      <polygon
         transform="translate(360,360)"
         points=" 0 0 226 0 226 0 239 14 239 14 239 59 239 59 0 59 0 59 0 0"
         opacity="0"
         stroke="none"
         id="polygon133" />
      <text
         fill="black"
         x="7"
         xml:space="preserve"
         y="17"
         transform="translate(360,360)"
         stroke="none"
         id="text135">inherited attribute dimension</text>
      <text
         fill="black"
         x="7"
         xml:space="preserve"
         y="34"
         transform="translate(360,360)"
         stroke="none"
         id="text137">shall be Lat or Long or</text>
      <text
         fill="black"
         x="7"
         xml:space="preserve"
         y="51"
         transform="translate(360,360)"
         stroke="none"
         id="text139">phenomenonTime</text>
      <line
         transform="translate(360,360)"
         fill="none"
         x1="0"
         x2="226"
         y1="0"
         y2="0"
         stroke="black"
         id="line141" />
      <line
         transform="translate(360,360)"
         fill="none"
         x1="226"
         x2="239"
         y1="0"
         y2="14"
         stroke="black"
         id="line143" />
      <line
         transform="translate(360,360)"
         fill="none"
         x1="239"
         x2="239"
         y1="14"
         y2="59"
         stroke="black"
         id="line145" />
      <line
         transform="translate(360,360)"
         fill="none"
         x1="239"
         x2="0"
         y1="59"
         y2="59"
         stroke="black"
         id="line147" />
      <line
         transform="translate(360,360)"
         fill="none"
         x1="0"
         x2="0"
         y1="59"
         y2="0"
         stroke="black"
         id="line149" />
      <line
         transform="translate(360,360)"
         fill="none"
         x1="226"
         x2="226"
         y1="0"
         y2="14"
         stroke="black"
         id="line151" />
      <line
         transform="translate(360,360)"
         fill="none"
         x1="226"
         x2="239"
         y1="14"
         y2="14"
         stroke="black"
         id="line153" />
    </g>
    <g
       stroke-dasharray="8,5"
       font-size="14"
       stroke-miterlimit="5"
       font-family="sans-serif"
       transform="translate(380,230)"
       stroke-linecap="butt"
       id="g155">
      <line
         y2="30"
         fill="none"
         x1="30"
         x2="55"
         y1="30"
         id="line157" />
      <line
         y2="30"
         fill="none"
         x1="55"
         x2="80"
         y1="30"
         id="line159" />
      <line
         y2="30"
         fill="none"
         x1="30"
         x2="50"
         transform="translate(70,150)"
         y1="30"
         id="line161" />
      <line
         y2="30"
         fill="none"
         x1="50"
         x2="70"
         transform="translate(70,150)"
         y1="30"
         id="line163" />
      <line
         y2="30"
         fill="none"
         x1="30"
         x2="90"
         transform="translate(-40,340)"
         y1="30"
         id="line165" />
      <line
         y2="30"
         fill="none"
         x1="90"
         x2="150"
         transform="translate(-40,340)"
         y1="30"
         id="line167" />
    </g>
    <g
       fill="white"
       font-size="14"
       font-family="sans-serif"
       transform="translate(40,160)"
       stroke="white"
       id="g169">
      <rect
         x="0"
         width="709"
         height="509"
         y="0"
         opacity="0"
         stroke="none"
         id="rect171" />
      <rect
         fill="none"
         x="0"
         width="709"
         height="509"
         y="0"
         stroke="black"
         id="rect173" />
      <text
         fill="black"
         x="7"
         xml:space="preserve"
         y="17"
         stroke="none"
         id="text175">class DescribeEOCoverageSet</text>
      <line
         y2="31"
         fill="none"
         x1="0"
         x2="209"
         stroke="black"
         y1="31"
         id="line177" />
      <line
         y2="14"
         fill="none"
         x1="223"
         x2="223"
         stroke="black"
         y1="0"
         id="line179" />
      <line
         y2="14"
         fill="none"
         x1="209"
         x2="223"
         stroke="black"
         y1="31"
         id="line181" />
    </g>
  </g>
</svg>
