<?xml version="1.0" encoding="UTF-8" standalone="no"?>
<svg
   xmlns:dc="http://purl.org/dc/elements/1.1/"
   xmlns:cc="http://creativecommons.org/ns#"
   xmlns:rdf="http://www.w3.org/1999/02/22-rdf-syntax-ns#"
   xmlns:svg="http://www.w3.org/2000/svg"
   xmlns="http://www.w3.org/2000/svg"
   xmlns:sodipodi="http://sodipodi.sourceforge.net/DTD/sodipodi-0.dtd"
   xmlns:inkscape="http://www.inkscape.org/namespaces/inkscape"
   fill-opacity="1"
   color-rendering="auto"
   color-interpolation="auto"
   stroke="black"
   text-rendering="auto"
   stroke-linecap="square"
   width="870"
   stroke-miterlimit="10"
   stroke-opacity="1"
   shape-rendering="auto"
   fill="black"
   stroke-dasharray="none"
   font-weight="normal"
   stroke-width="1"
   viewBox="60 90 870 590"
   height="590"
   font-family="'Dialog'"
   font-style="normal"
   stroke-linejoin="miter"
   font-size="12"
   stroke-dashoffset="0"
   image-rendering="auto"
   id="svg2"
   version="1.1"
   inkscape:version="0.48.4 r9939"
   sodipodi:docname="response-getcapabilities.svg"
   inkscape:export-filename="/home/meissls/eox/projects/ESA_EVO-ODAS/deliverables/Standardisation/eo-wcs_1.1/spec/images/response-getcapabilities.png"
   inkscape:export-xdpi="300"
   inkscape:export-ydpi="300">
  <metadata
     id="metadata303">
    <rdf:RDF>
      <cc:Work
         rdf:about="">
        <dc:format>image/svg+xml</dc:format>
        <dc:type
           rdf:resource="http://purl.org/dc/dcmitype/StillImage" />
        <dc:title></dc:title>
      </cc:Work>
    </rdf:RDF>
  </metadata>
  <sodipodi:namedview
     pagecolor="#ffffff"
     bordercolor="#666666"
     borderopacity="1"
     objecttolerance="10"
     gridtolerance="10"
     guidetolerance="10"
     inkscape:pageopacity="0"
     inkscape:pageshadow="2"
     inkscape:window-width="640"
     inkscape:window-height="480"
     id="namedview301"
     showgrid="false"
     inkscape:zoom="0.35172414"
     inkscape:cx="435"
     inkscape:cy="295"
     inkscape:window-x="53"
     inkscape:window-y="24"
     inkscape:window-maximized="0"
     inkscape:current-layer="svg2" />
  <!--Generated by the Batik Graphics2D SVG Generator-->
  <defs
     id="genericDefs" />
  <g
     id="g5">
    <g
       fill="white"
       font-size="14"
       font-family="sans-serif"
       transform="translate(80,110)"
       stroke="white"
       id="g7">
      <rect
         x="0"
         width="829"
         height="549"
         y="0"
         opacity="0"
         stroke="none"
         id="rect9" />
      <rect
         fill="none"
         x="0"
         width="829"
         height="549"
         y="0"
         stroke="black"
         id="rect11" />
      <text
         fill="black"
         x="7"
         xml:space="preserve"
         y="17"
         stroke="none"
         id="text13">class Capabilities</text>
      <line
         y2="31"
         fill="none"
         x1="0"
         x2="119"
         stroke="black"
         y1="31"
         id="line15" />
      <line
         y2="14"
         fill="none"
         x1="133"
         x2="133"
         stroke="black"
         y1="0"
         id="line17" />
      <line
         y2="14"
         fill="none"
         x1="119"
         x2="133"
         stroke="black"
         y1="31"
         id="line19" />
      <rect
         x="0"
         y="0"
         transform="translate(20,180)"
         width="239"
         height="79"
         opacity="0"
         stroke="none"
         id="rect21" />
      <rect
         x="0"
         y="0"
         transform="translate(20,180)"
         fill="none"
         width="239"
         height="79"
         stroke="black"
         id="rect23" />
      <text
         fill="black"
         x="77"
         xml:space="preserve"
         y="17"
         transform="translate(20,180)"
         stroke="none"
         id="text25">«Data Type»</text>
      <text
         fill="black"
         x="39"
         xml:space="preserve"
         y="34"
         transform="translate(20,180)"
         stroke="none"
         id="text27">DatasetSeriesSummary</text>
      <line
         transform="translate(20,180)"
         fill="none"
         x1="0"
         x2="239"
         y1="37"
         y2="37"
         stroke="black"
         id="line29" />
      <text
         fill="black"
         x="7"
         xml:space="preserve"
         y="54"
         transform="translate(20,180)"
         stroke="none"
         id="text31">+ DatasetSeriesId: NCName</text>
      <text
         fill="black"
         x="7"
         xml:space="preserve"
         y="71"
         transform="translate(20,180)"
         stroke="none"
         id="text33">+ TimePeriod: GML::TimePeriod</text>
      <rect
         x="0"
         y="0"
         transform="translate(320,180)"
         width="179"
         height="49"
         opacity="0"
         stroke="none"
         id="rect35" />
      <rect
         x="0"
         y="0"
         transform="translate(320,180)"
         fill="none"
         width="179"
         height="49"
         stroke="black"
         id="rect37" />
      <text
         fill="black"
         x="57"
         xml:space="preserve"
         y="17"
         transform="translate(320,180)"
         stroke="none"
         id="text39">Extension</text>
      <line
         transform="translate(320,180)"
         fill="none"
         x1="0"
         x2="179"
         y1="20"
         y2="20"
         stroke="black"
         id="line41" />
      <text
         fill="black"
         x="7"
         xml:space="preserve"
         y="37"
         transform="translate(320,180)"
         stroke="none"
         id="text43">+ any: anyType [0..*]</text>
      <line
         transform="translate(230,180)"
         fill="none"
         x1="90"
         x2="60"
         y1="30"
         y2="30"
         stroke="black"
         id="line45" />
      <line
         transform="translate(230,180)"
         fill="none"
         x1="60"
         x2="30"
         y1="30"
         y2="30"
         stroke="black"
         id="line47" />
      <line
         transform="translate(230,180)"
         fill="none"
         x1="89"
         x2="77"
         y1="30"
         y2="36"
         stroke="black"
         id="line49" />
      <line
         transform="translate(230,180)"
         fill="none"
         x1="89"
         x2="77"
         y1="30"
         y2="24"
         stroke="black"
         id="line51" />
      <polygon
         fill="black"
         transform="translate(230,180)"
         points=" 89 30 77 36 65 30 77 24"
         stroke="none"
         id="polygon53" />
      <text
         fill="black"
         x="7"
         xml:space="preserve"
         y="17"
         transform="translate(260,190)"
         stroke="none"
         id="text55">0..*</text>
      <text
         fill="black"
         x="7"
         xml:space="preserve"
         y="17"
         transform="translate(500,190)"
         stroke="none"
         id="text57">0..1</text>
      <line
         transform="translate(470,180)"
         fill="none"
         x1="100"
         x2="65"
         y1="30"
         y2="30"
         stroke="black"
         id="line59" />
      <line
         transform="translate(470,180)"
         fill="none"
         x1="65"
         x2="30"
         y1="30"
         y2="30"
         stroke="black"
         id="line61" />
      <line
         transform="translate(470,180)"
         fill="none"
         x1="99"
         x2="87"
         y1="30"
         y2="36"
         stroke="black"
         id="line63" />
      <line
         transform="translate(470,180)"
         fill="none"
         x1="99"
         x2="87"
         y1="30"
         y2="24"
         stroke="black"
         id="line65" />
      <polygon
         fill="black"
         transform="translate(470,180)"
         points=" 99 30 87 36 75 30 87 24"
         stroke="none"
         id="polygon67" />
      <rect
         x="0"
         y="0"
         transform="translate(570,180)"
         width="239"
         height="79"
         opacity="0"
         stroke="none"
         id="rect69" />
      <rect
         x="0"
         y="0"
         transform="translate(570,180)"
         fill="none"
         width="239"
         height="79"
         stroke="black"
         id="rect71" />
      <text
         fill="black"
         x="77"
         xml:space="preserve"
         y="17"
         transform="translate(570,180)"
         stroke="none"
         id="text73">«Data Type»</text>
      <text
         fill="black"
         x="14"
         xml:space="preserve"
         y="34"
         transform="translate(570,180)"
         stroke="none"
         id="text75">WCS Core::CoverageSummary</text>
      <line
         transform="translate(570,180)"
         fill="none"
         x1="0"
         x2="239"
         y1="37"
         y2="37"
         stroke="black"
         id="line77" />
      <text
         fill="black"
         x="7"
         xml:space="preserve"
         y="54"
         transform="translate(570,180)"
         stroke="none"
         id="text79">+ coverageId: NCName</text>
      <text
         fill="black"
         x="7"
         xml:space="preserve"
         y="71"
         transform="translate(570,180)"
         stroke="none"
         id="text81">+ coverageSubtype: QName</text>
      <rect
         x="0"
         y="0"
         transform="translate(570,100)"
         width="119"
         height="39"
         opacity="0"
         stroke="none"
         id="rect83" />
      <rect
         x="0"
         y="0"
         transform="translate(570,100)"
         fill="none"
         width="119"
         height="39"
         stroke="black"
         id="rect85" />
      <text
         fill="black"
         x="17"
         xml:space="preserve"
         y="17"
         transform="translate(570,100)"
         stroke="none"
         id="text87">«Data Type»</text>
      <text
         fill="black"
         x="30"
         xml:space="preserve"
         y="34"
         transform="translate(570,100)"
         stroke="none"
         id="text89">Contents</text>
      <rect
         x="0"
         y="0"
         transform="translate(570,20)"
         width="239"
         height="39"
         opacity="0"
         stroke="none"
         id="rect91" />
      <rect
         x="0"
         y="0"
         transform="translate(570,20)"
         fill="none"
         width="239"
         height="39"
         stroke="black"
         id="rect93" />
      <text
         fill="black"
         x="77"
         xml:space="preserve"
         y="17"
         transform="translate(570,20)"
         stroke="none"
         id="text95">«Data Type»</text>
      <text
         fill="black"
         x="15"
         xml:space="preserve"
         y="34"
         transform="translate(570,20)"
         stroke="none"
         id="text97">OWS Common::OWS Contents</text>
      <line
         transform="translate(600,110)"
         fill="none"
         x1="30"
         x2="30"
         y1="30"
         y2="50"
         stroke="black"
         id="line99" />
      <line
         transform="translate(600,110)"
         fill="none"
         x1="30"
         x2="30"
         y1="50"
         y2="70"
         stroke="black"
         id="line101" />
      <line
         transform="translate(600,110)"
         fill="none"
         x1="30"
         x2="36"
         y1="30"
         y2="42"
         stroke="black"
         id="line103" />
      <line
         transform="translate(600,110)"
         fill="none"
         x1="30"
         x2="24"
         y1="30"
         y2="42"
         stroke="black"
         id="line105" />
      <polygon
         fill="black"
         transform="translate(600,110)"
         points=" 30 30 36 42 30 54 24 42"
         stroke="none"
         id="polygon107" />
      <line
         transform="translate(600,30)"
         fill="none"
         x1="30"
         x2="30"
         y1="30"
         y2="50"
         stroke="black"
         id="line109" />
      <line
         transform="translate(600,30)"
         fill="none"
         x1="30"
         x2="30"
         y1="50"
         y2="70"
         stroke="black"
         id="line111" />
      <line
         transform="translate(600,30)"
         fill="none"
         x1="30"
         x2="36"
         y1="30"
         y2="42"
         stroke="black"
         id="line113" />
      <line
         transform="translate(600,30)"
         fill="none"
         x1="30"
         x2="24"
         y1="30"
         y2="42"
         stroke="black"
         id="line115" />
      <polygon
         points=" 30 30 36 42 24 42"
         transform="translate(600,30)"
         stroke="none"
         id="polygon117" />
      <polygon
         fill="none"
         transform="translate(600,30)"
         points=" 30 30 36 42 24 42"
         stroke="black"
         id="polygon119" />
      <line
         transform="translate(710,30)"
         fill="none"
         x1="30"
         x2="30"
         y1="30"
         y2="90"
         stroke="black"
         id="line121" />
      <line
         transform="translate(710,30)"
         fill="none"
         x1="30"
         x2="30"
         y1="90"
         y2="150"
         stroke="black"
         id="line123" />
      <line
         transform="translate(710,30)"
         fill="none"
         x1="30"
         x2="36"
         y1="30"
         y2="42"
         stroke="black"
         id="line125" />
      <line
         transform="translate(710,30)"
         fill="none"
         x1="30"
         x2="24"
         y1="30"
         y2="42"
         stroke="black"
         id="line127" />
      <polygon
         points=" 30 30 36 42 30 54 24 42"
         transform="translate(710,30)"
         stroke="none"
         id="polygon129" />
      <polygon
         fill="none"
         transform="translate(710,30)"
         points=" 30 30 36 42 30 54 24 42"
         stroke="black"
         id="polygon131" />
      <line
         transform="translate(710,30)"
         fill="none"
         x1="30"
         x2="24"
         y1="149"
         y2="137"
         stroke="black"
         id="line133" />
      <line
         transform="translate(710,30)"
         fill="none"
         x1="30"
         x2="36"
         y1="149"
         y2="137"
         stroke="black"
         id="line135" />
      <text
         fill="black"
         x="7"
         xml:space="preserve"
         y="17"
         transform="translate(630,160)"
         stroke="none"
         id="text137">0..*</text>
      <text
         fill="black"
         x="7"
         xml:space="preserve"
         y="17"
         transform="translate(740,160)"
         stroke="none"
         id="text139">0..*</text>
      <rect
         x="0"
         y="0"
         transform="translate(310,280)"
         width="199"
         height="39"
         opacity="0"
         stroke="none"
         id="rect141" />
      <rect
         x="0"
         y="0"
         transform="translate(310,280)"
         fill="none"
         width="199"
         height="39"
         stroke="black"
         id="rect143" />
      <text
         fill="black"
         x="57"
         xml:space="preserve"
         y="17"
         transform="translate(310,280)"
         stroke="none"
         id="text145">«Data Type»</text>
      <text
         fill="black"
         x="13"
         xml:space="preserve"
         y="34"
         transform="translate(310,280)"
         stroke="none"
         id="text147">OWS Common::Metadata</text>
      <rect
         x="0"
         y="0"
         transform="translate(300,340)"
         width="219"
         height="39"
         opacity="0"
         stroke="none"
         id="rect149" />
      <rect
         x="0"
         y="0"
         transform="translate(300,340)"
         fill="none"
         width="219"
         height="39"
         stroke="black"
         id="rect151" />
      <text
         fill="black"
         x="67"
         xml:space="preserve"
         y="17"
         transform="translate(300,340)"
         stroke="none"
         id="text153">«Data Type»</text>
      <text
         fill="black"
         x="9"
         xml:space="preserve"
         y="34"
         transform="translate(300,340)"
         stroke="none"
         id="text155">OWS Common::BoundingBox</text>
      <rect
         x="0"
         y="0"
         transform="translate(270,420)"
         width="279"
         height="39"
         opacity="0"
         stroke="none"
         id="rect157" />
      <rect
         x="0"
         y="0"
         transform="translate(270,420)"
         fill="none"
         width="279"
         height="39"
         stroke="black"
         id="rect159" />
      <text
         fill="black"
         x="97"
         xml:space="preserve"
         y="17"
         transform="translate(270,420)"
         stroke="none"
         id="text161">«Data Type»</text>
      <text
         fill="black"
         x="14"
         xml:space="preserve"
         y="34"
         transform="translate(270,420)"
         stroke="none"
         id="text163">OWS Common::WGS84BoundingBox</text>
      <line
         transform="translate(380,350)"
         fill="none"
         x1="30"
         x2="30"
         y1="30"
         y2="50"
         stroke="black"
         id="line165" />
      <line
         transform="translate(380,350)"
         fill="none"
         x1="30"
         x2="30"
         y1="50"
         y2="70"
         stroke="black"
         id="line167" />
      <line
         transform="translate(380,350)"
         fill="none"
         x1="30"
         x2="36"
         y1="30"
         y2="42"
         stroke="black"
         id="line169" />
      <line
         transform="translate(380,350)"
         fill="none"
         x1="30"
         x2="24"
         y1="30"
         y2="42"
         stroke="black"
         id="line171" />
      <polygon
         points=" 30 30 36 42 24 42"
         transform="translate(380,350)"
         stroke="none"
         id="polygon173" />
      <polygon
         fill="none"
         transform="translate(380,350)"
         points=" 30 30 36 42 24 42"
         stroke="black"
         id="polygon175" />
      <line
         transform="translate(150,230)"
         fill="none"
         x1="160"
         x2="30"
         y1="70"
         y2="70"
         stroke="black"
         id="line177" />
      <line
         transform="translate(150,230)"
         fill="none"
         x1="30"
         x2="30"
         y1="70"
         y2="50"
         stroke="black"
         id="line179" />
      <line
         transform="translate(150,230)"
         fill="none"
         x1="30"
         x2="30"
         y1="50"
         y2="30"
         stroke="black"
         id="line181" />
      <line
         transform="translate(150,230)"
         fill="none"
         x1="159"
         x2="147"
         y1="70"
         y2="76"
         stroke="black"
         id="line183" />
      <line
         transform="translate(150,230)"
         fill="none"
         x1="159"
         x2="147"
         y1="70"
         y2="64"
         stroke="black"
         id="line185" />
      <line
         transform="translate(70,230)"
         fill="none"
         x1="30"
         x2="30"
         y1="30"
         y2="210"
         stroke="black"
         id="line187" />
      <line
         transform="translate(70,230)"
         fill="none"
         x1="30"
         x2="115"
         y1="210"
         y2="210"
         stroke="black"
         id="line189" />
      <line
         transform="translate(70,230)"
         fill="none"
         x1="115"
         x2="200"
         y1="210"
         y2="210"
         stroke="black"
         id="line191" />
      <line
         transform="translate(70,230)"
         fill="none"
         x1="30"
         x2="36"
         y1="30"
         y2="42"
         stroke="black"
         id="line193" />
      <line
         transform="translate(70,230)"
         fill="none"
         x1="30"
         x2="24"
         y1="30"
         y2="42"
         stroke="black"
         id="line195" />
      <polygon
         fill="black"
         transform="translate(70,230)"
         points=" 30 30 36 42 30 54 24 42"
         stroke="none"
         id="polygon197" />
      <line
         transform="translate(70,230)"
         fill="none"
         x1="199"
         x2="187"
         y1="210"
         y2="216"
         stroke="black"
         id="line199" />
      <line
         transform="translate(70,230)"
         fill="none"
         x1="199"
         x2="187"
         y1="210"
         y2="204"
         stroke="black"
         id="line201" />
      <line
         transform="translate(480,230)"
         fill="none"
         x1="30"
         x2="140"
         y1="70"
         y2="70"
         stroke="black"
         id="line203" />
      <line
         transform="translate(480,230)"
         fill="none"
         x1="140"
         x2="140"
         y1="70"
         y2="50"
         stroke="black"
         id="line205" />
      <line
         transform="translate(480,230)"
         fill="none"
         x1="140"
         x2="140"
         y1="50"
         y2="30"
         stroke="black"
         id="line207" />
      <line
         transform="translate(480,230)"
         fill="none"
         x1="30"
         x2="42"
         y1="70"
         y2="64"
         stroke="black"
         id="line209" />
      <line
         transform="translate(480,230)"
         fill="none"
         x1="30"
         x2="42"
         y1="70"
         y2="76"
         stroke="black"
         id="line211" />
      <line
         transform="translate(490,230)"
         fill="none"
         x1="180"
         x2="180"
         y1="30"
         y2="130"
         stroke="black"
         id="line213" />
      <line
         transform="translate(490,230)"
         fill="none"
         x1="180"
         x2="105"
         y1="130"
         y2="130"
         stroke="black"
         id="line215" />
      <line
         transform="translate(490,230)"
         fill="none"
         x1="105"
         x2="30"
         y1="130"
         y2="130"
         stroke="black"
         id="line217" />
      <line
         transform="translate(490,230)"
         fill="none"
         x1="180"
         x2="186"
         y1="30"
         y2="42"
         stroke="black"
         id="line219" />
      <line
         transform="translate(490,230)"
         fill="none"
         x1="180"
         x2="174"
         y1="30"
         y2="42"
         stroke="black"
         id="line221" />
      <polygon
         fill="black"
         transform="translate(490,230)"
         points=" 180 30 186 42 180 54 174 42"
         stroke="none"
         id="polygon223" />
      <line
         transform="translate(490,230)"
         fill="none"
         x1="30"
         x2="42"
         y1="130"
         y2="124"
         stroke="black"
         id="line225" />
      <line
         transform="translate(490,230)"
         fill="none"
         x1="30"
         x2="42"
         y1="130"
         y2="136"
         stroke="black"
         id="line227" />
      <line
         transform="translate(520,230)"
         fill="none"
         x1="200"
         x2="200"
         y1="30"
         y2="210"
         stroke="black"
         id="line229" />
      <line
         transform="translate(520,230)"
         fill="none"
         x1="200"
         x2="115"
         y1="210"
         y2="210"
         stroke="black"
         id="line231" />
      <line
         transform="translate(520,230)"
         fill="none"
         x1="115"
         x2="30"
         y1="210"
         y2="210"
         stroke="black"
         id="line233" />
      <line
         transform="translate(520,230)"
         fill="none"
         x1="200"
         x2="206"
         y1="30"
         y2="42"
         stroke="black"
         id="line235" />
      <line
         transform="translate(520,230)"
         fill="none"
         x1="200"
         x2="194"
         y1="30"
         y2="42"
         stroke="black"
         id="line237" />
      <polygon
         fill="black"
         transform="translate(520,230)"
         points=" 200 30 206 42 200 54 194 42"
         stroke="none"
         id="polygon239" />
      <line
         transform="translate(520,230)"
         fill="none"
         x1="30"
         x2="42"
         y1="210"
         y2="204"
         stroke="black"
         id="line241" />
      <line
         transform="translate(520,230)"
         fill="none"
         x1="30"
         x2="42"
         y1="210"
         y2="216"
         stroke="black"
         id="line243" />
      <line
         transform="translate(740,230)"
         fill="none"
         x1="30"
         x2="30"
         y1="30"
         y2="140"
         stroke="black"
         id="line245" />
      <line
         transform="translate(740,230)"
         fill="none"
         x1="30"
         x2="30"
         y1="140"
         y2="250"
         stroke="black"
         id="line247" />
      <line
         transform="translate(740,230)"
         fill="none"
         x1="30"
         x2="36"
         y1="30"
         y2="42"
         stroke="black"
         id="line249" />
      <line
         transform="translate(740,230)"
         fill="none"
         x1="30"
         x2="24"
         y1="30"
         y2="42"
         stroke="black"
         id="line251" />
      <polygon
         fill="black"
         transform="translate(740,230)"
         points=" 30 30 36 42 30 54 24 42"
         stroke="none"
         id="polygon253" />
      <rect
         x="0"
         y="0"
         transform="translate(590,480)"
         width="219"
         height="49"
         opacity="0"
         stroke="none"
         id="rect255" />
      <rect
         x="0"
         y="0"
         transform="translate(590,480)"
         fill="none"
         width="219"
         height="49"
         stroke="black"
         id="rect257" />
      <text
         fill="black"
         x="26"
         xml:space="preserve"
         y="17"
         transform="translate(590,480)"
         stroke="none"
         id="text259">CoverageSubtypeParent</text>
      <line
         transform="translate(590,480)"
         fill="none"
         x1="0"
         x2="219"
         y1="20"
         y2="20"
         stroke="black"
         id="line261" />
      <text
         fill="black"
         x="7"
         xml:space="preserve"
         y="37"
         transform="translate(590,480)"
         stroke="none"
         id="text263">+ coverageSubtype: QName</text>
      <line
         transform="translate(510,460)"
         fill="none"
         x1="80"
         x2="30"
         y1="60"
         y2="60"
         stroke="black"
         id="line265" />
      <line
         transform="translate(510,460)"
         fill="none"
         x1="30"
         x2="30"
         y1="60"
         y2="45"
         stroke="black"
         id="line267" />
      <line
         transform="translate(510,460)"
         fill="none"
         x1="30"
         x2="30"
         y1="45"
         y2="30"
         stroke="black"
         id="line269" />
      <line
         transform="translate(510,460)"
         fill="none"
         x1="30"
         x2="80"
         y1="30"
         y2="30"
         stroke="black"
         id="line271" />
      <line
         transform="translate(510,460)"
         fill="none"
         x1="79"
         x2="67"
         y1="60"
         y2="66"
         stroke="black"
         id="line273" />
      <line
         transform="translate(510,460)"
         fill="none"
         x1="79"
         x2="67"
         y1="60"
         y2="54"
         stroke="black"
         id="line275" />
      <polygon
         fill="black"
         transform="translate(510,460)"
         points=" 79 60 67 66 55 60 67 54"
         stroke="none"
         id="polygon277" />
      <text
         fill="black"
         x="7"
         xml:space="preserve"
         y="17"
         transform="translate(180,260)"
         stroke="none"
         id="text279">0..*</text>
      <text
         fill="black"
         x="7"
         xml:space="preserve"
         y="34"
         transform="translate(180,260)"
         stroke="none"
         id="text281">   metadata   0..*</text>
      <text
         fill="black"
         x="7"
         xml:space="preserve"
         y="17"
         transform="translate(510,260)"
         stroke="none"
         id="text283" />
      <text
         fill="black"
         x="7"
         xml:space="preserve"
         y="34"
         transform="translate(510,260)"
         stroke="none"
         id="text285">0..*  metadata</text>
      <text
         fill="black"
         x="7"
         xml:space="preserve"
         y="17"
         transform="translate(530,340)"
         stroke="none"
         id="text287">0..*   boundingBox</text>
      <text
         fill="black"
         x="7"
         xml:space="preserve"
         y="17"
         transform="translate(560,420)"
         stroke="none"
         id="text289">0..*</text>
      <text
         fill="black"
         x="7"
         xml:space="preserve"
         y="34"
         transform="translate(560,420)"
         stroke="none"
         id="text291">wgs84BoundingBox</text>
      <text
         fill="black"
         x="7"
         xml:space="preserve"
         y="17"
         transform="translate(630,460)"
         stroke="none"
         id="text293">coverageSubtypeParent</text>
      <text
         fill="black"
         x="7"
         xml:space="preserve"
         y="17"
         transform="translate(410,470)"
         stroke="none"
         id="text295">                                0..1</text>
      <text
         fill="black"
         x="7"
         xml:space="preserve"
         y="34"
         transform="translate(410,470)"
         stroke="none"
         id="text297">coverageSubtypeParent</text>
      <text
         fill="black"
         x="7"
         xml:space="preserve"
         y="17"
         transform="translate(100,420)"
         stroke="none"
         id="text299">wgs84BoundingBox</text>
    </g>
  </g>
</svg>
