<?xml version="1.0" encoding="UTF-8" standalone="no"?>
<svg
   xmlns:dc="http://purl.org/dc/elements/1.1/"
   xmlns:cc="http://creativecommons.org/ns#"
   xmlns:rdf="http://www.w3.org/1999/02/22-rdf-syntax-ns#"
   xmlns:svg="http://www.w3.org/2000/svg"
   xmlns="http://www.w3.org/2000/svg"
   xmlns:sodipodi="http://sodipodi.sourceforge.net/DTD/sodipodi-0.dtd"
   xmlns:inkscape="http://www.inkscape.org/namespaces/inkscape"
   fill-opacity="1"
   color-rendering="auto"
   color-interpolation="auto"
   stroke="black"
   text-rendering="auto"
   stroke-linecap="square"
   width="930"
   stroke-miterlimit="10"
   stroke-opacity="1"
   shape-rendering="auto"
   fill="black"
   stroke-dasharray="none"
   font-weight="normal"
   stroke-width="1"
   viewBox="-20 40 930 620"
   height="620"
   font-family="'Dialog'"
   font-style="normal"
   stroke-linejoin="miter"
   font-size="12"
   stroke-dashoffset="0"
   image-rendering="auto"
   id="svg2"
   version="1.1"
   inkscape:version="0.48.4 r9939"
   sodipodi:docname="uml-model.svg"
   inkscape:export-filename="/home/meissls/eox/projects/ESA_EVO-ODAS/deliverables/Standardisation/eo-wcs_1.1/spec/images/uml-model.png"
   inkscape:export-xdpi="300"
   inkscape:export-ydpi="300">
  <metadata
     id="metadata439">
    <rdf:RDF>
      <cc:Work
         rdf:about="">
        <dc:format>image/svg+xml</dc:format>
        <dc:type
           rdf:resource="http://purl.org/dc/dcmitype/StillImage" />
        <dc:title></dc:title>
      </cc:Work>
    </rdf:RDF>
  </metadata>
  <sodipodi:namedview
     pagecolor="#ffffff"
     bordercolor="#666666"
     borderopacity="1"
     objecttolerance="10"
     gridtolerance="10"
     guidetolerance="10"
     inkscape:pageopacity="0"
     inkscape:pageshadow="2"
     inkscape:window-width="640"
     inkscape:window-height="480"
     id="namedview437"
     showgrid="false"
     inkscape:zoom="0.32903226"
     inkscape:cx="465"
     inkscape:cy="310"
     inkscape:window-x="3333"
     inkscape:window-y="209"
     inkscape:window-maximized="0"
     inkscape:current-layer="svg2" />
  <!--Generated by the Batik Graphics2D SVG Generator-->
  <defs
     id="genericDefs" />
  <g
     id="g5">
    <g
       fill="white"
       font-size="14"
       font-family="sans-serif"
       transform="translate(0,60)"
       stroke="white"
       id="g7">
      <rect
         x="0"
         width="889"
         height="579"
         y="0"
         opacity="0"
         stroke="none"
         id="rect9" />
      <rect
         fill="none"
         x="0"
         width="889"
         height="579"
         y="0"
         stroke="black"
         id="rect11" />
      <text
         fill="black"
         x="7"
         xml:space="preserve"
         y="17"
         stroke="none"
         id="text13">pkg EO-WCS Coverage Schema</text>
      <line
         y2="31"
         fill="none"
         x1="0"
         x2="217"
         stroke="black"
         y1="31"
         id="line15" />
      <line
         y2="14"
         fill="none"
         x1="231"
         x2="231"
         stroke="black"
         y1="0"
         id="line17" />
      <line
         y2="14"
         fill="none"
         x1="217"
         x2="231"
         stroke="black"
         y1="31"
         id="line19" />
      <rect
         x="0"
         y="0"
         transform="translate(20,50)"
         width="239"
         height="59"
         opacity="0"
         stroke="none"
         id="rect21" />
      <rect
         x="0"
         y="0"
         transform="translate(20,50)"
         fill="none"
         width="239"
         height="59"
         stroke="black"
         id="rect23" />
      <text
         fill="black"
         x="67"
         xml:space="preserve"
         y="17"
         transform="translate(20,50)"
         stroke="none"
         id="text25">«Feature Type»</text>
      <text
         fill="black"
         x="86"
         xml:space="preserve"
         y="34"
         transform="translate(20,50)"
         stroke="none"
         id="text27">GMLCOV::</text>
      <text
         fill="black"
         x="9"
         xml:space="preserve"
         y="51"
         transform="translate(20,50)"
         stroke="none"
         id="text29">CV_ReferenceableGridCoverage</text>
      <rect
         x="0"
         y="0"
         transform="translate(630,50)"
         width="239"
         height="59"
         opacity="0"
         stroke="none"
         id="rect31" />
      <rect
         x="0"
         y="0"
         transform="translate(630,50)"
         fill="none"
         width="239"
         height="59"
         stroke="black"
         id="rect33" />
      <text
         fill="black"
         x="67"
         xml:space="preserve"
         y="17"
         transform="translate(630,50)"
         stroke="none"
         id="text35">«Feature Type»</text>
      <text
         fill="black"
         x="86"
         xml:space="preserve"
         y="34"
         transform="translate(630,50)"
         stroke="none"
         id="text37">GMLCOV::</text>
      <text
         fill="black"
         x="29"
         xml:space="preserve"
         y="51"
         transform="translate(630,50)"
         stroke="none"
         id="text39">CV_RectifiedGridCoverage</text>
      <rect
         x="0"
         y="0"
         transform="translate(280,50)"
         width="329"
         height="79"
         opacity="0"
         stroke="none"
         id="rect41" />
      <rect
         x="0"
         y="0"
         transform="translate(280,50)"
         fill="none"
         width="329"
         height="79"
         stroke="black"
         id="rect43" />
      <text
         fill="black"
         x="122"
         xml:space="preserve"
         y="17"
         transform="translate(280,50)"
         stroke="none"
         id="text45">«Data Type»</text>
      <text
         fill="black"
         x="124"
         xml:space="preserve"
         y="34"
         transform="translate(280,50)"
         stroke="none"
         id="text47">EOMetadata</text>
      <line
         transform="translate(280,50)"
         fill="none"
         x1="0"
         x2="329"
         y1="37"
         y2="37"
         stroke="black"
         id="line49" />
      <text
         fill="black"
         x="7"
         xml:space="preserve"
         y="54"
         transform="translate(280,50)"
         stroke="none"
         id="text51">+ earthObservation: EOP::EarthObservation</text>
      <text
         fill="black"
         x="7"
         xml:space="preserve"
         y="71"
         transform="translate(280,50)"
         stroke="none"
         id="text53">+ lineage: Lineage [0..1]</text>
      <rect
         x="0"
         y="0"
         transform="translate(20,150)"
         width="239"
         height="39"
         opacity="0"
         stroke="none"
         id="rect55" />
      <rect
         x="0"
         y="0"
         transform="translate(20,150)"
         fill="none"
         width="239"
         height="39"
         stroke="black"
         id="rect57" />
      <text
         fill="black"
         x="67"
         xml:space="preserve"
         y="17"
         transform="translate(20,150)"
         stroke="none"
         id="text59">«Feature Type»</text>
      <text
         fill="black"
         x="27"
         xml:space="preserve"
         y="34"
         transform="translate(20,150)"
         stroke="none"
         id="text61">ReferenceableEOCoverage</text>
      <rect
         x="0"
         y="0"
         transform="translate(630,150)"
         width="239"
         height="39"
         opacity="0"
         stroke="none"
         id="rect63" />
      <rect
         x="0"
         y="0"
         transform="translate(630,150)"
         fill="none"
         width="239"
         height="39"
         stroke="black"
         id="rect65" />
      <text
         fill="black"
         x="67"
         xml:space="preserve"
         y="17"
         transform="translate(630,150)"
         stroke="none"
         id="text67">«Feature Type»</text>
      <text
         fill="black"
         x="47"
         xml:space="preserve"
         y="34"
         transform="translate(630,150)"
         stroke="none"
         id="text69">RectifiedEOCoverage</text>
      <line
         transform="translate(230,100)"
         fill="none"
         x1="30"
         x2="90"
         y1="70"
         y2="70"
         stroke="black"
         id="line71" />
      <line
         transform="translate(230,100)"
         fill="none"
         x1="90"
         x2="90"
         y1="70"
         y2="50"
         stroke="black"
         id="line73" />
      <line
         transform="translate(230,100)"
         fill="none"
         x1="90"
         x2="90"
         y1="50"
         y2="30"
         stroke="black"
         id="line75" />
      <line
         transform="translate(230,100)"
         fill="none"
         x1="30"
         x2="42"
         y1="70"
         y2="64"
         stroke="black"
         id="line77" />
      <line
         transform="translate(230,100)"
         fill="none"
         x1="30"
         x2="42"
         y1="70"
         y2="76"
         stroke="black"
         id="line79" />
      <polygon
         fill="black"
         transform="translate(230,100)"
         points=" 30 70 42 64 54 70 42 76"
         stroke="none"
         id="polygon81" />
      <text
         fill="black"
         x="58"
         xml:space="preserve"
         y="67"
         transform="translate(230,100)"
         stroke="none"
         id="text83">metadata</text>
      <line
         transform="translate(500,100)"
         fill="none"
         x1="130"
         x2="70"
         y1="70"
         y2="70"
         stroke="black"
         id="line85" />
      <line
         transform="translate(500,100)"
         fill="none"
         x1="70"
         x2="70"
         y1="70"
         y2="50"
         stroke="black"
         id="line87" />
      <line
         transform="translate(500,100)"
         fill="none"
         x1="70"
         x2="70"
         y1="50"
         y2="30"
         stroke="black"
         id="line89" />
      <line
         transform="translate(500,100)"
         fill="none"
         x1="129"
         x2="117"
         y1="70"
         y2="76"
         stroke="black"
         id="line91" />
      <line
         transform="translate(500,100)"
         fill="none"
         x1="129"
         x2="117"
         y1="70"
         y2="64"
         stroke="black"
         id="line93" />
      <polygon
         fill="black"
         transform="translate(500,100)"
         points=" 129 70 117 76 105 70 117 64"
         stroke="none"
         id="polygon95" />
      <text
         fill="black"
         x="38"
         xml:space="preserve"
         y="67"
         transform="translate(500,100)"
         stroke="none"
         id="text97">metadata</text>
      <rect
         x="0"
         y="0"
         transform="translate(310,210)"
         width="269"
         height="109"
         opacity="0"
         stroke="none"
         id="rect99" />
      <rect
         x="0"
         y="0"
         transform="translate(310,210)"
         fill="none"
         width="269"
         height="109"
         stroke="black"
         id="rect101" />
      <text
         fill="black"
         x="82"
         xml:space="preserve"
         y="17"
         transform="translate(310,210)"
         stroke="none"
         id="text103">«Feature Type»</text>
      <text
         fill="black"
         x="88"
         xml:space="preserve"
         y="34"
         transform="translate(310,210)"
         stroke="none"
         id="text105">DatasetSeries</text>
      <line
         transform="translate(310,210)"
         fill="none"
         x1="0"
         x2="269"
         y1="37"
         y2="37"
         stroke="black"
         id="line107" />
      <text
         fill="black"
         x="7"
         xml:space="preserve"
         y="54"
         transform="translate(310,210)"
         stroke="none"
         id="text109">+ DatasetSeriesId: NCName</text>
      <text
         fill="black"
         x="7"
         xml:space="preserve"
         y="71"
         transform="translate(310,210)"
         stroke="none"
         id="text111">+ Footprint: EOP::Footprint [0..1]</text>
      <text
         fill="black"
         x="7"
         xml:space="preserve"
         y="88"
         transform="translate(310,210)"
         stroke="none"
         id="text113">+ TimePeriod: GML::TimePeriod</text>
      <text
         fill="black"
         x="7"
         xml:space="preserve"
         y="105"
         transform="translate(310,210)"
         stroke="none"
         id="text115">+ Metadata: OWS::Metadata [0..*]</text>
      <rect
         x="0"
         y="0"
         transform="translate(150,390)"
         width="239"
         height="39"
         opacity="0"
         stroke="none"
         id="rect117" />
      <rect
         x="0"
         y="0"
         transform="translate(150,390)"
         fill="none"
         width="239"
         height="39"
         stroke="black"
         id="rect119" />
      <text
         fill="black"
         x="67"
         xml:space="preserve"
         y="17"
         transform="translate(150,390)"
         stroke="none"
         id="text121">«Feature Type»</text>
      <text
         fill="black"
         x="18"
         xml:space="preserve"
         y="34"
         transform="translate(150,390)"
         stroke="none"
         id="text123">ReferenceableStitchedMosaic</text>
      <rect
         x="0"
         y="0"
         transform="translate(500,390)"
         width="239"
         height="39"
         opacity="0"
         stroke="none"
         id="rect125" />
      <rect
         x="0"
         y="0"
         transform="translate(500,390)"
         fill="none"
         width="239"
         height="39"
         stroke="black"
         id="rect127" />
      <text
         fill="black"
         x="67"
         xml:space="preserve"
         y="17"
         transform="translate(500,390)"
         stroke="none"
         id="text129">«Feature Type»</text>
      <text
         fill="black"
         x="38"
         xml:space="preserve"
         y="34"
         transform="translate(500,390)"
         stroke="none"
         id="text131">RectifiedStitchedMosaic</text>
      <rect
         x="0"
         y="0"
         transform="translate(150,520)"
         width="239"
         height="39"
         opacity="0"
         stroke="none"
         id="rect133" />
      <rect
         x="0"
         y="0"
         transform="translate(150,520)"
         fill="none"
         width="239"
         height="39"
         stroke="black"
         id="rect135" />
      <text
         fill="black"
         x="67"
         xml:space="preserve"
         y="17"
         transform="translate(150,520)"
         stroke="none"
         id="text137">«Feature Type»</text>
      <text
         fill="black"
         x="43"
         xml:space="preserve"
         y="34"
         transform="translate(150,520)"
         stroke="none"
         id="text139">ReferenceableDataset</text>
      <rect
         x="0"
         y="0"
         transform="translate(500,520)"
         width="239"
         height="39"
         opacity="0"
         stroke="none"
         id="rect141" />
      <rect
         x="0"
         y="0"
         transform="translate(500,520)"
         fill="none"
         width="239"
         height="39"
         stroke="black"
         id="rect143" />
      <text
         fill="black"
         x="67"
         xml:space="preserve"
         y="17"
         transform="translate(500,520)"
         stroke="none"
         id="text145">«Feature Type»</text>
      <text
         fill="black"
         x="63"
         xml:space="preserve"
         y="34"
         transform="translate(500,520)"
         stroke="none"
         id="text147">RectifiedDataset</text>
      <rect
         x="0"
         y="0"
         transform="translate(60,450)"
         width="289"
         height="49"
         opacity="0"
         stroke="none"
         id="rect149" />
      <rect
         x="0"
         y="0"
         transform="translate(60,450)"
         fill="none"
         width="289"
         height="49"
         stroke="black"
         id="rect151" />
      <text
         fill="black"
         x="120"
         xml:space="preserve"
         y="17"
         transform="translate(60,450)"
         stroke="none"
         id="text153">dataset</text>
      <line
         transform="translate(60,450)"
         fill="none"
         x1="0"
         x2="289"
         y1="20"
         y2="20"
         stroke="black"
         id="line155" />
      <text
         fill="black"
         x="7"
         xml:space="preserve"
         y="37"
         transform="translate(60,450)"
         stroke="none"
         id="text157">+ contributingFootprint: EOP::Footprint</text>
      <rect
         x="0"
         y="0"
         transform="translate(540,450)"
         width="289"
         height="49"
         opacity="0"
         stroke="none"
         id="rect159" />
      <rect
         x="0"
         y="0"
         transform="translate(540,450)"
         fill="none"
         width="289"
         height="49"
         stroke="black"
         id="rect161" />
      <text
         fill="black"
         x="120"
         xml:space="preserve"
         y="17"
         transform="translate(540,450)"
         stroke="none"
         id="text163">dataset</text>
      <line
         transform="translate(540,450)"
         fill="none"
         x1="0"
         x2="289"
         y1="20"
         y2="20"
         stroke="black"
         id="line165" />
      <text
         fill="black"
         x="7"
         xml:space="preserve"
         y="37"
         transform="translate(540,450)"
         stroke="none"
         id="text167">+ contributingFootprint: EOP::Footprint</text>
      <line
         transform="translate(320,290)"
         fill="none"
         x1="30"
         x2="30"
         y1="30"
         y2="65"
         stroke="black"
         id="line169" />
      <line
         transform="translate(320,290)"
         fill="none"
         x1="30"
         x2="30"
         y1="65"
         y2="100"
         stroke="black"
         id="line171" />
      <line
         transform="translate(320,290)"
         fill="none"
         x1="30"
         x2="36"
         y1="30"
         y2="42"
         stroke="black"
         id="line173" />
      <line
         transform="translate(320,290)"
         fill="none"
         x1="30"
         x2="24"
         y1="30"
         y2="42"
         stroke="black"
         id="line175" />
      <polygon
         points=" 30 30 36 42 30 54 24 42"
         transform="translate(320,290)"
         stroke="none"
         id="polygon177" />
      <polygon
         fill="none"
         transform="translate(320,290)"
         points=" 30 30 36 42 30 54 24 42"
         stroke="black"
         id="polygon179" />
      <line
         transform="translate(510,290)"
         fill="none"
         x1="30"
         x2="30"
         y1="30"
         y2="65"
         stroke="black"
         id="line181" />
      <line
         transform="translate(510,290)"
         fill="none"
         x1="30"
         x2="30"
         y1="65"
         y2="100"
         stroke="black"
         id="line183" />
      <line
         transform="translate(510,290)"
         fill="none"
         x1="30"
         x2="36"
         y1="30"
         y2="42"
         stroke="black"
         id="line185" />
      <line
         transform="translate(510,290)"
         fill="none"
         x1="30"
         x2="24"
         y1="30"
         y2="42"
         stroke="black"
         id="line187" />
      <polygon
         points=" 30 30 36 42 30 54 24 42"
         transform="translate(510,290)"
         stroke="none"
         id="polygon189" />
      <polygon
         fill="none"
         transform="translate(510,290)"
         points=" 30 30 36 42 30 54 24 42"
         stroke="black"
         id="polygon191" />
      <line
         transform="translate(430,290)"
         fill="none"
         x1="30"
         x2="30"
         y1="30"
         y2="250"
         stroke="black"
         id="line193" />
      <line
         transform="translate(430,290)"
         fill="none"
         x1="30"
         x2="50"
         y1="250"
         y2="250"
         stroke="black"
         id="line195" />
      <line
         transform="translate(430,290)"
         fill="none"
         x1="50"
         x2="70"
         y1="250"
         y2="250"
         stroke="black"
         id="line197" />
      <line
         transform="translate(430,290)"
         fill="none"
         x1="30"
         x2="36"
         y1="30"
         y2="42"
         stroke="black"
         id="line199" />
      <line
         transform="translate(430,290)"
         fill="none"
         x1="30"
         x2="24"
         y1="30"
         y2="42"
         stroke="black"
         id="line201" />
      <polygon
         points=" 30 30 36 42 30 54 24 42"
         transform="translate(430,290)"
         stroke="none"
         id="polygon203" />
      <polygon
         fill="none"
         transform="translate(430,290)"
         points=" 30 30 36 42 30 54 24 42"
         stroke="black"
         id="polygon205" />
      <line
         transform="translate(360,290)"
         fill="none"
         x1="70"
         x2="70"
         y1="30"
         y2="250"
         stroke="black"
         id="line207" />
      <line
         transform="translate(360,290)"
         fill="none"
         x1="70"
         x2="50"
         y1="250"
         y2="250"
         stroke="black"
         id="line209" />
      <line
         transform="translate(360,290)"
         fill="none"
         x1="50"
         x2="30"
         y1="250"
         y2="250"
         stroke="black"
         id="line211" />
      <line
         transform="translate(360,290)"
         fill="none"
         x1="70"
         x2="76"
         y1="30"
         y2="42"
         stroke="black"
         id="line213" />
      <line
         transform="translate(360,290)"
         fill="none"
         x1="70"
         x2="64"
         y1="30"
         y2="42"
         stroke="black"
         id="line215" />
      <polygon
         points=" 70 30 76 42 70 54 64 42"
         transform="translate(360,290)"
         stroke="none"
         id="polygon217" />
      <polygon
         fill="none"
         transform="translate(360,290)"
         points=" 70 30 76 42 70 54 64 42"
         stroke="black"
         id="polygon219" />
      <line
         transform="translate(340,400)"
         fill="none"
         x1="30"
         x2="30"
         y1="30"
         y2="75"
         stroke="black"
         id="line221" />
      <line
         transform="translate(340,400)"
         fill="none"
         x1="30"
         x2="30"
         y1="75"
         y2="120"
         stroke="black"
         id="line223" />
      <line
         transform="translate(340,400)"
         fill="none"
         x1="30"
         x2="36"
         y1="30"
         y2="42"
         stroke="black"
         id="line225" />
      <line
         transform="translate(340,400)"
         fill="none"
         x1="30"
         x2="24"
         y1="30"
         y2="42"
         stroke="black"
         id="line227" />
      <polygon
         points=" 30 30 36 42 30 54 24 42"
         transform="translate(340,400)"
         stroke="none"
         id="polygon229" />
      <polygon
         fill="none"
         transform="translate(340,400)"
         points=" 30 30 36 42 30 54 24 42"
         stroke="black"
         id="polygon231" />
      <line
         transform="translate(490,400)"
         fill="none"
         x1="30"
         x2="30"
         y1="30"
         y2="75"
         stroke="black"
         id="line233" />
      <line
         transform="translate(490,400)"
         fill="none"
         x1="30"
         x2="30"
         y1="75"
         y2="120"
         stroke="black"
         id="line235" />
      <line
         transform="translate(490,400)"
         fill="none"
         x1="30"
         x2="36"
         y1="30"
         y2="42"
         stroke="black"
         id="line237" />
      <line
         transform="translate(490,400)"
         fill="none"
         x1="30"
         x2="24"
         y1="30"
         y2="42"
         stroke="black"
         id="line239" />
      <polygon
         points=" 30 30 36 42 30 54 24 42"
         transform="translate(490,400)"
         stroke="none"
         id="polygon241" />
      <polygon
         fill="none"
         transform="translate(490,400)"
         points=" 30 30 36 42 30 54 24 42"
         stroke="black"
         id="polygon243" />
      <line
         transform="translate(10,160)"
         fill="none"
         x1="30"
         x2="30"
         y1="30"
         y2="380"
         stroke="black"
         id="line245" />
      <line
         transform="translate(10,160)"
         fill="none"
         x1="30"
         x2="85"
         y1="380"
         y2="380"
         stroke="black"
         id="line247" />
      <line
         transform="translate(10,160)"
         fill="none"
         x1="85"
         x2="140"
         y1="380"
         y2="380"
         stroke="black"
         id="line249" />
      <line
         transform="translate(10,160)"
         fill="none"
         x1="30"
         x2="36"
         y1="30"
         y2="42"
         stroke="black"
         id="line251" />
      <line
         transform="translate(10,160)"
         fill="none"
         x1="30"
         x2="24"
         y1="30"
         y2="42"
         stroke="black"
         id="line253" />
      <polygon
         points=" 30 30 36 42 24 42"
         transform="translate(10,160)"
         stroke="none"
         id="polygon255" />
      <polygon
         fill="none"
         transform="translate(10,160)"
         points=" 30 30 36 42 24 42"
         stroke="black"
         id="polygon257" />
      <line
         transform="translate(710,160)"
         fill="none"
         x1="140"
         x2="140"
         y1="30"
         y2="380"
         stroke="black"
         id="line259" />
      <line
         transform="translate(710,160)"
         fill="none"
         x1="140"
         x2="85"
         y1="380"
         y2="380"
         stroke="black"
         id="line261" />
      <line
         transform="translate(710,160)"
         fill="none"
         x1="85"
         x2="30"
         y1="380"
         y2="380"
         stroke="black"
         id="line263" />
      <line
         transform="translate(710,160)"
         fill="none"
         x1="140"
         x2="146"
         y1="30"
         y2="42"
         stroke="black"
         id="line265" />
      <line
         transform="translate(710,160)"
         fill="none"
         x1="140"
         x2="134"
         y1="30"
         y2="42"
         stroke="black"
         id="line267" />
      <polygon
         points=" 140 30 146 42 134 42"
         transform="translate(710,160)"
         stroke="none"
         id="polygon269" />
      <polygon
         fill="none"
         transform="translate(710,160)"
         points=" 140 30 146 42 134 42"
         stroke="black"
         id="polygon271" />
      <line
         transform="translate(710,160)"
         fill="none"
         x1="80"
         x2="80"
         y1="30"
         y2="250"
         stroke="black"
         id="line273" />
      <line
         transform="translate(710,160)"
         fill="none"
         x1="80"
         x2="55"
         y1="250"
         y2="250"
         stroke="black"
         id="line275" />
      <line
         transform="translate(710,160)"
         fill="none"
         x1="55"
         x2="30"
         y1="250"
         y2="250"
         stroke="black"
         id="line277" />
      <line
         transform="translate(710,160)"
         fill="none"
         x1="80"
         x2="86"
         y1="30"
         y2="42"
         stroke="black"
         id="line279" />
      <line
         transform="translate(710,160)"
         fill="none"
         x1="80"
         x2="74"
         y1="30"
         y2="42"
         stroke="black"
         id="line281" />
      <polygon
         points=" 80 30 86 42 74 42"
         transform="translate(710,160)"
         stroke="none"
         id="polygon283" />
      <polygon
         fill="none"
         transform="translate(710,160)"
         points=" 80 30 86 42 74 42"
         stroke="black"
         id="polygon285" />
      <line
         transform="translate(70,160)"
         fill="none"
         x1="30"
         x2="30"
         y1="30"
         y2="250"
         stroke="black"
         id="line287" />
      <line
         transform="translate(70,160)"
         fill="none"
         x1="30"
         x2="55"
         y1="250"
         y2="250"
         stroke="black"
         id="line289" />
      <line
         transform="translate(70,160)"
         fill="none"
         x1="55"
         x2="80"
         y1="250"
         y2="250"
         stroke="black"
         id="line291" />
      <line
         transform="translate(70,160)"
         fill="none"
         x1="30"
         x2="36"
         y1="30"
         y2="42"
         stroke="black"
         id="line293" />
      <line
         transform="translate(70,160)"
         fill="none"
         x1="30"
         x2="24"
         y1="30"
         y2="42"
         stroke="black"
         id="line295" />
      <polygon
         points=" 30 30 36 42 24 42"
         transform="translate(70,160)"
         stroke="none"
         id="polygon297" />
      <polygon
         fill="none"
         transform="translate(70,160)"
         points=" 30 30 36 42 24 42"
         stroke="black"
         id="polygon299" />
      <line
         transform="translate(550,230)"
         fill="none"
         x1="30"
         x2="70"
         y1="30"
         y2="30"
         stroke="black"
         id="line301" />
      <line
         transform="translate(550,230)"
         fill="none"
         x1="70"
         x2="70"
         y1="30"
         y2="50"
         stroke="black"
         id="line303" />
      <line
         transform="translate(550,230)"
         fill="none"
         x1="70"
         x2="70"
         y1="50"
         y2="70"
         stroke="black"
         id="line305" />
      <line
         transform="translate(550,230)"
         fill="none"
         x1="70"
         x2="30"
         y1="70"
         y2="70"
         stroke="black"
         id="line307" />
      <line
         transform="translate(550,230)"
         fill="none"
         x1="30"
         x2="42"
         y1="30"
         y2="24"
         stroke="black"
         id="line309" />
      <line
         transform="translate(550,230)"
         fill="none"
         x1="30"
         x2="42"
         y1="30"
         y2="36"
         stroke="black"
         id="line311" />
      <polygon
         points=" 30 30 42 24 54 30 42 36"
         transform="translate(550,230)"
         stroke="none"
         id="polygon313" />
      <polygon
         fill="none"
         transform="translate(550,230)"
         points=" 30 30 42 24 54 30 42 36"
         stroke="black"
         id="polygon315" />
      <line
         transform="translate(110,80)"
         fill="none"
         x1="30"
         x2="30"
         y1="30"
         y2="50"
         stroke="black"
         id="line317" />
      <line
         transform="translate(110,80)"
         fill="none"
         x1="30"
         x2="30"
         y1="50"
         y2="70"
         stroke="black"
         id="line319" />
      <line
         transform="translate(110,80)"
         fill="none"
         x1="30"
         x2="36"
         y1="30"
         y2="42"
         stroke="black"
         id="line321" />
      <line
         transform="translate(110,80)"
         fill="none"
         x1="30"
         x2="24"
         y1="30"
         y2="42"
         stroke="black"
         id="line323" />
      <polygon
         points=" 30 30 36 42 24 42"
         transform="translate(110,80)"
         stroke="none"
         id="polygon325" />
      <polygon
         fill="none"
         transform="translate(110,80)"
         points=" 30 30 36 42 24 42"
         stroke="black"
         id="polygon327" />
      <line
         transform="translate(720,80)"
         fill="none"
         x1="30"
         x2="30"
         y1="30"
         y2="50"
         stroke="black"
         id="line329" />
      <line
         transform="translate(720,80)"
         fill="none"
         x1="30"
         x2="30"
         y1="50"
         y2="70"
         stroke="black"
         id="line331" />
      <line
         transform="translate(720,80)"
         fill="none"
         x1="30"
         x2="36"
         y1="30"
         y2="42"
         stroke="black"
         id="line333" />
      <line
         transform="translate(720,80)"
         fill="none"
         x1="30"
         x2="24"
         y1="30"
         y2="42"
         stroke="black"
         id="line335" />
      <polygon
         points=" 30 30 36 42 24 42"
         transform="translate(720,80)"
         stroke="none"
         id="polygon337" />
      <polygon
         fill="none"
         transform="translate(720,80)"
         points=" 30 30 36 42 24 42"
         stroke="black"
         id="polygon339" />
      <text
         fill="black"
         x="7"
         xml:space="preserve"
         y="17"
         transform="translate(130,330)"
         stroke="none"
         id="text341">                                        0..*</text>
      <text
         fill="black"
         x="7"
         xml:space="preserve"
         y="34"
         transform="translate(130,330)"
         stroke="none"
         id="text343">referenceableStitchedMosaic </text>
      <text
         fill="black"
         x="7"
         xml:space="preserve"
         y="51"
         transform="translate(130,330)"
         stroke="none"
         id="text345">                                        0..*</text>
      <text
         fill="black"
         x="7"
         xml:space="preserve"
         y="17"
         transform="translate(350,330)"
         stroke="none"
         id="text347">         0..*</text>
      <text
         fill="black"
         x="7"
         xml:space="preserve"
         y="34"
         transform="translate(350,330)"
         stroke="none"
         id="text349" />
      <text
         fill="black"
         x="7"
         xml:space="preserve"
         y="51"
         transform="translate(350,330)"
         stroke="none"
         id="text351">referenceableDataset </text>
      <text
         fill="black"
         x="7"
         xml:space="preserve"
         y="68"
         transform="translate(350,330)"
         stroke="none"
         id="text353" />
      <text
         fill="black"
         x="7"
         xml:space="preserve"
         y="85"
         transform="translate(350,330)"
         stroke="none"
         id="text355" />
      <text
         fill="black"
         x="7"
         xml:space="preserve"
         y="102"
         transform="translate(350,330)"
         stroke="none"
         id="text357" />
      <text
         fill="black"
         x="7"
         xml:space="preserve"
         y="119"
         transform="translate(350,330)"
         stroke="none"
         id="text359" />
      <text
         fill="black"
         x="7"
         xml:space="preserve"
         y="136"
         transform="translate(350,330)"
         stroke="none"
         id="text361" />
      <text
         fill="black"
         x="7"
         xml:space="preserve"
         y="153"
         transform="translate(350,330)"
         stroke="none"
         id="text363" />
      <text
         fill="black"
         x="7"
         xml:space="preserve"
         y="170"
         transform="translate(350,330)"
         stroke="none"
         id="text365" />
      <text
         fill="black"
         x="7"
         xml:space="preserve"
         y="187"
         transform="translate(350,330)"
         stroke="none"
         id="text367" />
      <text
         fill="black"
         x="7"
         xml:space="preserve"
         y="204"
         transform="translate(350,330)"
         stroke="none"
         id="text369">         0..*</text>
      <text
         fill="black"
         x="7"
         xml:space="preserve"
         y="17"
         transform="translate(540,330)"
         stroke="none"
         id="text371">0..*</text>
      <text
         fill="black"
         x="7"
         xml:space="preserve"
         y="34"
         transform="translate(540,330)"
         stroke="none"
         id="text373">rectifiedStitchedMosaic</text>
      <text
         fill="black"
         x="7"
         xml:space="preserve"
         y="51"
         transform="translate(540,330)"
         stroke="none"
         id="text375">0..*</text>
      <text
         fill="black"
         x="7"
         xml:space="preserve"
         y="17"
         transform="translate(410,330)"
         stroke="none"
         id="text377">            0..*</text>
      <text
         fill="black"
         x="7"
         xml:space="preserve"
         y="34"
         transform="translate(410,330)"
         stroke="none"
         id="text379">rectifiedDataset</text>
      <text
         fill="black"
         x="7"
         xml:space="preserve"
         y="51"
         transform="translate(410,330)"
         stroke="none"
         id="text381" />
      <text
         fill="black"
         x="7"
         xml:space="preserve"
         y="68"
         transform="translate(410,330)"
         stroke="none"
         id="text383" />
      <text
         fill="black"
         x="7"
         xml:space="preserve"
         y="85"
         transform="translate(410,330)"
         stroke="none"
         id="text385" />
      <text
         fill="black"
         x="7"
         xml:space="preserve"
         y="102"
         transform="translate(410,330)"
         stroke="none"
         id="text387" />
      <text
         fill="black"
         x="7"
         xml:space="preserve"
         y="119"
         transform="translate(410,330)"
         stroke="none"
         id="text389" />
      <text
         fill="black"
         x="7"
         xml:space="preserve"
         y="136"
         transform="translate(410,330)"
         stroke="none"
         id="text391" />
      <text
         fill="black"
         x="7"
         xml:space="preserve"
         y="153"
         transform="translate(410,330)"
         stroke="none"
         id="text393" />
      <text
         fill="black"
         x="7"
         xml:space="preserve"
         y="170"
         transform="translate(410,330)"
         stroke="none"
         id="text395" />
      <text
         fill="black"
         x="7"
         xml:space="preserve"
         y="187"
         transform="translate(410,330)"
         stroke="none"
         id="text397" />
      <text
         fill="black"
         x="7"
         xml:space="preserve"
         y="204"
         transform="translate(410,330)"
         stroke="none"
         id="text399">            0..*</text>
      <text
         fill="black"
         x="7"
         xml:space="preserve"
         y="17"
         transform="translate(580,230)"
         stroke="none"
         id="text401">0..*</text>
      <text
         fill="black"
         x="7"
         xml:space="preserve"
         y="34"
         transform="translate(580,230)"
         stroke="none"
         id="text403" />
      <text
         fill="black"
         x="7"
         xml:space="preserve"
         y="51"
         transform="translate(580,230)"
         stroke="none"
         id="text405">datasetSeries</text>
      <text
         fill="black"
         x="7"
         xml:space="preserve"
         y="68"
         transform="translate(580,230)"
         stroke="none"
         id="text407" />
      <text
         fill="black"
         x="7"
         xml:space="preserve"
         y="85"
         transform="translate(580,230)"
         stroke="none"
         id="text409">0..*</text>
      <text
         fill="black"
         x="7"
         xml:space="preserve"
         y="17"
         transform="translate(480,440)"
         stroke="none"
         id="text411">0..*</text>
      <text
         fill="black"
         x="7"
         xml:space="preserve"
         y="34"
         transform="translate(480,440)"
         stroke="none"
         id="text413" />
      <text
         fill="black"
         x="7"
         xml:space="preserve"
         y="51"
         transform="translate(480,440)"
         stroke="none"
         id="text415" />
      <text
         fill="black"
         x="7"
         xml:space="preserve"
         y="68"
         transform="translate(480,440)"
         stroke="none"
         id="text417">1..*</text>
      <text
         fill="black"
         x="7"
         xml:space="preserve"
         y="17"
         transform="translate(370,440)"
         stroke="none"
         id="text419">0..*</text>
      <text
         fill="black"
         x="7"
         xml:space="preserve"
         y="34"
         transform="translate(370,440)"
         stroke="none"
         id="text421" />
      <text
         fill="black"
         x="7"
         xml:space="preserve"
         y="51"
         transform="translate(370,440)"
         stroke="none"
         id="text423" />
      <text
         fill="black"
         x="7"
         xml:space="preserve"
         y="68"
         transform="translate(370,440)"
         stroke="none"
         id="text425">1..*</text>
    </g>
    <g
       stroke-dasharray="8,5"
       font-size="14"
       stroke-miterlimit="5"
       font-family="sans-serif"
       transform="translate(320,500)"
       stroke-linecap="butt"
       id="g427">
      <line
         y2="30"
         fill="none"
         x1="30"
         x2="40"
         y1="30"
         id="line429" />
      <line
         y2="30"
         fill="none"
         x1="40"
         x2="50"
         y1="30"
         id="line431" />
      <line
         y2="30"
         fill="none"
         x1="50"
         x2="40"
         transform="translate(170,0)"
         y1="30"
         id="line433" />
      <line
         y2="30"
         fill="none"
         x1="40"
         x2="30"
         transform="translate(170,0)"
         y1="30"
         id="line435" />
    </g>
  </g>
</svg>
